<?xml version="1.0" standalone="no"?>
<!DOCTYPE svg PUBLIC "-//W3C//DTD SVG 20010904//EN"
 "http://www.w3.org/TR/2001/REC-SVG-20010904/DTD/svg10.dtd">
<svg version="1.0" xmlns="http://www.w3.org/2000/svg"
 width="132.000000pt" height="132.000000pt" viewBox="0 0 132.000000 132.000000"
 preserveAspectRatio="xMidYMid meet">

<g transform="translate(0.000000,132.000000) scale(0.100000,-0.100000)"
fill="#000000" stroke="none">
<path d="M650 1195 c0 -70 4 -115 10 -115 6 0 10 45 10 115 0 70 -4 115 -10
115 -6 0 -10 -45 -10 -115z"/>
<path d="M410 1109 c-69 -38 -132 -97 -181 -173 -47 -71 -49 -86 -11 -86 22 0
32 7 44 33 24 50 112 141 162 168 40 21 46 28 46 56 0 18 -1 33 -2 33 -2 0
-28 -14 -58 -31z"/>
<path d="M856 1133 c-3 -3 -6 -16 -6 -28 0 -15 19 -33 65 -63 65 -43 119 -101
149 -159 13 -27 23 -33 47 -33 26 0 30 3 25 18 -18 47 -76 129 -122 171 -54
49 -147 105 -158 94z"/>
<path d="M568 1069 c-63 -14 -150 -64 -201 -115 -73 -74 -146 -244 -104 -244
9 0 17 14 22 38 11 61 65 150 122 202 49 44 139 90 179 90 13 0 32 27 23 34
-2 1 -21 -1 -41 -5z"/>
<path d="M710 1062 c0 -5 30 -19 68 -31 122 -37 226 -143 259 -263 10 -36 22
-58 30 -58 37 0 -34 166 -103 240 -27 29 -73 63 -109 81 -66 32 -145 49 -145
31z"/>
<path d="M570 1005 c-113 -32 -198 -111 -241 -223 -29 -79 -24 -195 12 -272
62 -132 219 -222 356 -203 l40 5 -34 51 c-37 56 -40 90 -7 95 16 2 36 -13 74
-57 l53 -61 29 18 c85 49 157 170 165 276 20 241 -215 436 -447 371z m-100
-225 c0 -15 -7 -20 -25 -20 -14 0 -25 -4 -25 -10 0 -5 9 -10 20 -10 13 0 20
-7 20 -20 0 -13 -7 -20 -19 -20 -13 0 -21 -8 -23 -22 -2 -13 -10 -23 -18 -23
-12 0 -16 16 -18 73 l-3 72 46 0 c38 0 45 -3 45 -20z m138 3 c38 -32 30 -102
-13 -121 -36 -17 -48 -15 -79 9 -52 41 -23 129 43 129 16 0 38 -8 49 -17z
m167 -8 c14 -13 25 -36 25 -50 0 -33 -42 -75 -75 -75 -14 0 -37 11 -50 25 -14
13 -25 36 -25 50 0 14 11 37 25 50 13 14 36 25 50 25 14 0 37 -11 50 -25z
m150 0 c51 -50 21 -114 -55 -118 l-45 -2 -3 59 c-2 32 -1 65 2 72 9 24 74 17
101 -11z m-464 -181 c12 -15 10 -16 -18 -10 -36 8 -52 -7 -32 -30 8 -10 15
-12 23 -4 14 14 26 13 26 -4 0 -20 -35 -29 -60 -16 -22 12 -27 49 -8 68 17 17
53 15 69 -4z m49 -19 c0 -24 5 -35 15 -35 8 0 15 -4 15 -10 0 -5 -13 -10 -30
-10 -29 0 -30 2 -30 45 0 33 4 45 15 45 10 0 15 -11 15 -35z m75 -10 c0 -33
-4 -45 -15 -45 -11 0 -15 12 -15 45 0 33 4 45 15 45 11 0 15 -12 15 -45z m96
29 c12 -15 10 -16 -19 -10 -27 7 -32 5 -32 -12 0 -27 10 -33 32 -21 26 14 36
3 16 -18 -37 -36 -101 22 -68 62 16 20 54 19 71 -1z m49 1 c0 -8 5 -15 10 -15
6 0 10 7 10 15 0 8 7 15 15 15 17 0 20 -25 5 -35 -7 -4 -6 -13 1 -26 16 -31 0
-37 -21 -9 l-20 25 0 -22 c0 -13 -4 -23 -10 -23 -5 0 -10 20 -10 45 0 25 5 45
10 45 6 0 10 -7 10 -15z m120 5 c0 -5 -8 -11 -17 -11 -17 -1 -17 -2 0 -6 21
-5 23 -23 2 -23 -8 0 -15 -4 -15 -10 0 -5 7 -10 15 -10 8 0 15 -4 15 -10 0 -5
-11 -10 -25 -10 -23 0 -25 4 -25 45 0 41 2 45 25 45 14 0 25 -4 25 -10z m86
-26 c1 -17 4 -36 8 -43 4 -6 1 -11 -8 -11 -8 0 -20 8 -25 18 -10 16 -10 16
-11 0 0 -10 -7 -18 -15 -18 -11 0 -15 12 -15 46 0 45 0 45 33 42 28 -3 32 -7
33 -34z"/>
<path d="M534 746 c-10 -26 1 -51 23 -54 28 -4 50 32 32 54 -15 18 -48 18 -55
0z"/>
<path d="M693 744 c-8 -22 9 -48 35 -52 16 -2 23 3 28 22 3 14 3 30 -1 35 -10
17 -55 13 -62 -5z"/>
<path d="M860 725 c0 -32 3 -36 23 -33 17 2 22 10 22 33 0 23 -5 31 -22 33
-20 3 -23 -1 -23 -33z"/>
<path d="M900 580 c0 -5 5 -10 10 -10 6 0 10 5 10 10 0 6 -4 10 -10 10 -5 0
-10 -4 -10 -10z"/>
<path d="M10 660 c0 -6 45 -10 115 -10 70 0 115 4 115 10 0 6 -45 10 -115 10
-70 0 -115 -4 -115 -10z"/>
<path d="M1080 660 c0 -6 45 -10 114 -10 66 0 117 4 121 10 4 6 -37 10 -114
10 -74 0 -121 -4 -121 -10z"/>
<path d="M254 573 c20 -111 122 -239 231 -289 71 -33 125 -42 125 -22 0 10
-13 17 -33 21 -128 21 -268 161 -293 293 -4 21 -12 34 -21 34 -12 0 -14 -8 -9
-37z"/>
<path d="M1035 549 c-11 -39 -36 -86 -66 -125 -39 -52 -45 -64 -29 -64 36 0
118 133 134 218 10 58 -19 36 -39 -29z"/>
<path d="M190 457 c0 -26 76 -132 127 -177 27 -25 73 -58 101 -73 l52 -28 0
33 c0 29 -7 37 -51 63 -58 34 -116 93 -150 153 -19 33 -30 42 -51 42 -17 0
-28 -5 -28 -13z"/>
<path d="M1048 415 l-36 -54 24 -16 c22 -14 24 -13 47 18 24 31 57 91 57 102
0 3 -13 5 -28 5 -23 0 -34 -10 -64 -55z"/>
<path d="M690 427 c0 -8 27 -52 61 -98 76 -105 92 -135 84 -159 -11 -33 -26
-25 -75 40 -25 35 -36 19 -21 -32 27 -88 125 -148 244 -148 92 0 134 76 102
187 -25 87 -83 152 -98 111 -4 -10 -7 -10 -18 0 -7 6 -21 12 -31 12 -15 0 -17
-5 -12 -27 l7 -28 -25 23 c-13 12 -34 22 -46 22 -22 0 -22 -1 -6 -25 22 -34 8
-47 -18 -15 -51 65 -130 150 -139 150 -5 0 -9 -6 -9 -13z"/>
<path d="M717 273 c-15 -14 -6 -23 23 -23 20 0 30 5 30 15 0 15 -40 21 -53 8z"/>
<path d="M650 125 c0 -70 4 -115 10 -115 6 0 10 45 10 115 0 70 -4 115 -10
115 -6 0 -10 -45 -10 -115z"/>
</g>
</svg>
